<svg width="847" height="847" viewBox="0 0 847 847" fill="none" xmlns="http://www.w3.org/2000/svg">
<circle cx="423.5" cy="423.5" r="423.5" fill="white"/>
<path d="M305.14 301.658C324.555 302.768 340.502 310.258 352.983 324.129C365.464 337.723 374.478 353.258 380.025 370.735C385.572 388.213 388.346 406.106 388.346 424.416C388.346 442.726 385.572 460.619 380.025 478.097C374.755 495.574 365.741 511.248 352.983 525.119C340.502 538.713 324.555 546.065 305.14 547.174H152.042C144.553 546.897 138.174 544.261 132.905 539.268C127.912 533.997 125.277 527.616 125 520.126V416.926C125.277 409.158 128.19 402.777 133.737 397.784C139.284 392.513 145.94 389.877 153.706 389.877C161.194 390.155 167.574 392.929 172.843 398.2C178.113 403.194 180.886 409.435 181.164 416.926V480.177C181.164 487.668 185.047 491.413 192.813 491.413H290.995C301.534 490.858 310.271 486.835 317.205 479.345C324.139 471.855 329.131 463.394 332.182 453.961C335.51 444.252 337.174 434.403 337.174 424.416C337.174 414.429 335.51 404.719 332.182 395.287C329.131 385.577 324.139 376.977 317.205 369.487C310.271 361.997 301.534 357.974 290.995 357.419H152.042C135.401 356.032 126.387 347.016 125 330.371C125 322.603 127.496 315.945 132.489 310.397C137.758 304.848 144.276 301.935 152.042 301.658H305.14Z" fill="#570DF8"/>
<path d="M462.399 295C469.887 295.277 476.266 298.052 481.536 303.323C486.806 308.316 489.579 314.558 489.856 322.048V525.952C488.192 542.597 479.04 551.613 462.399 553C454.633 553 447.838 550.503 442.013 545.51C436.466 540.239 433.693 533.719 433.693 525.952V322.048C433.97 314.281 436.882 307.9 442.429 302.906C447.976 297.635 454.633 295 462.399 295ZM533.539 368.239C552.122 355.755 577.222 343.132 608.84 330.371L677.069 301.242C680.12 299.855 683.448 299.023 687.054 298.745C694.819 298.19 701.476 300.548 707.023 305.819C712.57 310.813 715.344 317.332 715.344 325.377C715.344 334.532 713.402 341.329 709.519 345.768C705.914 349.929 701.199 353.397 695.374 356.171L637.13 378.226C625.759 382.665 614.942 387.103 604.68 391.542C594.695 395.703 585.543 400.558 577.222 406.106C568.902 411.1 564.464 416.787 563.909 423.168C564.464 429.271 568.902 434.958 577.222 440.229C585.543 445.777 594.695 450.771 604.68 455.21C614.942 459.371 625.759 463.671 637.13 468.11L702.031 491.829C707.855 494.603 712.57 498.21 716.176 502.648C720.058 506.81 722 513.468 722 522.623C722 530.668 719.226 537.326 713.679 542.597C708.132 547.59 701.476 549.81 693.71 549.255C690.104 548.977 686.776 548.145 683.725 546.758L608.84 515.965C577.222 503.203 551.983 490.581 533.123 478.097C514.541 465.335 505.111 447.026 504.833 423.168C505.111 399.31 514.679 381 533.539 368.239Z" fill="#570DF8"/>
</svg>
